<svg height="512" viewBox="0 0 44 58" width="512" xmlns="http://www.w3.org/2000/svg"><g id="Page-1" fill="none" fill-rule="evenodd"><g id="023---Bean-Roast" fill="rgb(0,0,0)" fill-rule="nonzero" transform="translate(0 -1)"><path id="Shape" d="m12.772 33.219c-1.5524008-.0517084-3.06067498.5214142-4.187 1.591-.053.052-.089.118-.139.173.64098246.3681713 1.35747526.5853422 2.095.635 3.125859.2442445 5.610417 2.7245627 5.86 5.85.122211 2.2459966 1.9187162 4.0381884 4.165 4.155 1.0112329.0839362 1.9901918.3964645 2.863.914.2692792-.7389748.4027586-1.5205406.394-2.307-.1419228-2.8662323-1.3867332-5.5665465-3.474-7.536-1.9794784-2.0970674-4.696268-3.3430545-7.577-3.475z"/><path id="Shape" d="m31.039 27.5c-.2675114 1.2104651-.8286629 2.3365456-1.634 3.279-.8934218.9650833-1.3811335 2.2370011-1.362 3.552-.0141587 1.3199225.4741829 2.595831 1.366 3.569 2.3526874 2.7387833 2.3526874 6.7852167 0 9.524-.6425612.7276999-1.0859262 1.6092625-1.287 2.559.157.012.317.018.482.018 4.636-.008 8.4-5.167 8.393-11.5.011-5.059-2.486-9.547-5.958-11.001z"/><path id="Shape" d="m16.277 45.761c-1.0927711-1.0609941-1.7536462-2.4892683-1.855-4.009-.1236891-2.2448251-1.9197992-4.0353291-4.165-4.152-1.01116991-.0849622-1.98997631-.3977836-2.863-.915-.26905393.738688-.40252814 1.5198847-.394 2.306.14285067 2.8659231 1.38794112 5.5657091 3.475 7.535 3.751 3.751 9.028 4.6 11.762 1.881.052-.052.089-.118.139-.173-.640913-.3681793-1.3574855-.5850322-2.095-.634-1.5154686-.0994939-2.9410502-.7542502-4.004-1.839z"/><path id="Shape" d="m40.829 23.757c-2.6944735-5.6317433-6.0302316-10.9335217-9.941-15.8-1.65-2.12-3.356-4.818-5.177-6.8-.127846-.14081134-.3245095-.19689753-.5073982-.14470423s-.3203295.20362713-.3546018.39070423c-.943 4.966-2.255 14.6-5.85 14.4-1.982-.11-2.384-2.67-2.7-4.618-.1334602-.8446013-.2205905-1.69587464-.261-2.55-.0151206-.21909195-.1714343-.40267028-.3853144-.45252205-.2138802-.04985176-.4352529.0456944-.5456856.23552205-1.3708079 2.6530139-2.1348936 5.5775116-2.237 8.562-.0632576 1.3413278-.0197873 2.6855617.13 4.02.168 1.514.189 4.753-1.9 4.978-2.559.277-2.962-4.238-3.113-5.948-.0918133-1.142902-.11652238-2.2902049-.074-3.436.00901311-.2189522-.12559738-.4182591-.33207207-.4916723s-.43669296-.0038232-.56792793.1716723c-3.05696091 4.319975-5.13928051 9.2523053-6.103 14.456-.00723961.0156416-.01066671.0327771-.01.05-.41123833 2.3045208-.56851174 4.6471904-.469 6.986.15466039 7.0076362 3.63528616 13.5233201 9.374 17.548 5.5850484 3.7159276 12.5596136 4.6826306 18.9447863 2.6258242 6.3851727-2.0568063 11.4841597-6.9126695 13.8502137-13.1898242.913412-2.8219611 1.3332329-5.7803282 1.241-8.745-.1720962-4.2433974-1.1964328-8.4087612-3.012-12.248zm-17.178 26.069c-1.5009813 1.4354792-3.5138957 2.2107573-5.59 2.153-3.411935-.1184594-6.6421399-1.5670268-9-4.036-2.47529447-2.3347025-3.93380639-5.5487441-4.061-8.949-.06366054-2.0838702.72041153-4.1044885 2.173-5.6 3.517-3.494 10.06-2.645 14.588 1.883 2.4756635 2.3345366 3.9345441 5.5485992 4.062 8.949.0639266 2.0837257-.7197768 4.1043239-2.172 5.6zm4.958 2.174c-.6060801.0035818-1.2104002-.0655793-1.8-.206-.4603707-.1096169-.7808703-.5269341-.768-1 .0305975-1.6865926.6576876-3.3078155 1.77-4.576.8934218-.9650833 1.3811335-2.2370011 1.362-3.552.0134119-1.3183398-.473677-2.5927044-1.363-3.566-2.3535365-2.7384686-2.3535365-6.7855314 0-9.524.6413848-.7269516 1.0846341-1.6069066 1.287-2.555-.168-.014-.3313333-.021-.49-.021-2.656.008-5.1 1.687-6.7 4.605-.1718447.3133219-.4977911.5111653-.8550582.5190043-.3572672.0078391-.6915777-.1755171-.877-.481-.1854224-.3054829-.1937866-.6866824-.0219418-1.0000043 1.933-3.523 5.092-5.633 8.447-5.643.6024827.001584 1.2030088.0686444 1.791.2 5 1.119 8.615 6.712 8.6 13.3.019 7.433-4.642 13.49-10.382 13.5z"/></g></g></svg>