<svg height="512" viewBox="0 0 44 58" width="512" xmlns="http://www.w3.org/2000/svg"><g id="Page-1" fill="none" fill-rule="evenodd"><g id="023---Bean-Roast" fill-rule="nonzero" transform="translate(0 -1)"><path id="Shape" d="m24.849 1.407c.0342723-.1870771.1717131-.33851093.3546018-.39070423s.3795522.00389289.5073982.14470423c1.821 1.981 3.527 4.679 5.177 6.8 3.9107684 4.8664783 7.2465265 10.1682567 9.941 15.8 1.8155672 3.8392388 2.8399038 8.0046026 3.012 12.248.0918314 2.9633389-.3279853 5.9203237-1.241 8.741-2.366054 6.2771547-7.465041 11.1330179-13.8502137 13.1898242-6.3851727 2.0568064-13.3597379 1.0901034-18.9447863-2.6258242-5.73871384-4.0246799-9.21933961-10.5403638-9.374-17.548-.09951174-2.3388096.05776167-4.6814792.469-6.986-.00066671-.0172229.00276039-.0343584.01-.05.96583074-5.2042599 3.0505558-10.1366307 6.11-14.456.13123497-.1754955.36145324-.2450855.56792793-.1716723s.34108518.2727201.33207207.4916723c-.04252238 1.1457951-.0178133 2.293098.074 3.436.152 1.71.554 6.225 3.113 5.948 2.086-.225 2.065-3.464 1.9-4.978-.1497873-1.3344383-.1932576-2.6786722-.13-4.02.1033155-2.9832826.8680699-5.9063591 2.239-8.558.1104327-.18982765.3318054-.28537381.5456856-.23552205.2138801.04985177.3701938.2334301.3853144.45252205.0404095.85412536.1275398 1.7053987.261 2.55.314 1.948.716 4.508 2.7 4.618 3.586.199 4.898-9.434 5.841-14.4z" fill="#f0c419"/><path id="Shape" d="m24.26 47.15c-.1379247.3176881-.2983316.6251347-.48.92-2.47-2.34-4.33-.56-6.8-3.02-2.51-2.5-.63-4.38-3.14-6.88-2.46-2.46-4.33-.68-6.79-3.02h-.01c.1825244-.2787641.38647392-.5428954.61-.79.06840772-.093636.14540856-.1806804.23-.26 2.8-2.77 7.8-2.4 11.79.66.4856678.3766748.9466183.7841818 1.38 1.22 3.41 3.38 4.59 7.92 3.21 11.17z" fill="#cb8252"/><path id="Shape" d="m23.78 48.07c-.1760336.2833265-.380418.548021-.61.79-.02.02-.04.05-.06.07-.05.06-.11.13-.17.19-3.12 3.1-9.02 2.27-13.17-1.88-3.41-3.39-4.59-7.94-3.2-11.19.13267622-.3119304.28983362-.6128701.47-.9h.01c2.46 2.34 4.33.56 6.79 3.02 2.51 2.5.63 4.38 3.14 6.88 2.47 2.46 4.33.68 6.8 3.02z" fill="#cf976a"/><path id="Shape" d="m27.04 34.33c0 4.17 3.14 4.17 3.14 8.34 0 4.09-3.04 4.15-3.14 8.15v.01c-.3348158-.0713074-.6653411-.1614507-.99-.27-1.0634583-.3768744-2.0569664-.927697-2.94-1.63.2518193-.2632906.4763002-.5514302.67-.86 2.07-3.27 1.01-8.38-2.73-12.09-.4333817-.4358182-.8943322-.8433252-1.38-1.22 1.18-5.09 4.73-8.75 8.94-8.76.1937206.0000202.3873111.0100335.58.03.3327625.0296619.6633863.0797564.99.15-.1 4-3.14 4.06-3.14 8.15z" fill="#a56a43"/><path id="Shape" d="m38 38.5c.01 7.15-4.52 12.9-9.97 12.48-.3326727-.0304055-.6632518-.0804932-.99-.15v-.01c.1-4 3.14-4.06 3.14-8.15 0-4.17-3.14-4.17-3.14-8.34 0-4.09 3.04-4.15 3.14-8.15.3384739.0695381.6698605.1699583.99.3 3.94 1.48 6.84 6.31 6.83 12.02z" fill="#805333"/><path id="Shape" d="m24.26 47.15c-.1379247.3176881-.2983316.6251347-.48.92-.1760336.2833265-.380418.548021-.61.79-.03-.02-.05-.04-.08-.06-.7561951-.7274231-1.7517314-1.1540815-2.8-1.2-3.1325702-.2334265-5.6258835-2.7182447-5.87-5.85-.1293383-2.2400384-1.9196568-4.0260532-4.16-4.15-1.36765173-.0940177-2.66545553-.6391657-3.69-1.55.25763954-.622553.62326067-1.1946824 1.08-1.69.03234407.0201524.0625061.0436117.09.07.75851304.7225277 1.75338897 1.1453499 2.8 1.19 3.1282954.2389437 5.6157137 2.7221173 5.86 5.85.0442272 1.0871256.5063384 2.1152334 1.29 2.87.7620111.7777933 1.7920429 1.2355852 2.88 1.28 1.3634027.096222 2.658533.6332272 3.69 1.53z" fill="#805333"/><path id="Shape" d="m31.18 42.67c.0201756 1.7481696-.6107468 3.4413228-1.77 4.75-.8538716.9376615-1.3403796 2.152156-1.37 3.42 0 .05-.01.1-.01.14-.3326727-.0304055-.6632518-.0804932-.99-.15-.3348158-.0713074-.6653411-.1614507-.99-.27.0845987-1.6046739.7082462-3.1338433 1.77-4.34.8926585-.964614 1.3796757-2.235872 1.36-3.55.0147373-1.3210638-.4752712-2.597947-1.37-3.57-2.3601934-2.7344799-2.3601934-6.7855201 0-9.52.8538716-.9376615 1.3403796-2.152156 1.37-3.42-.0016501-.0435732.0017052-.0871918.01-.13.3327625.0296619.6633863.0797564.99.15.3384739.0695381.6698605.1699583.99.3-.0924354 1.5909622-.7156508 3.1049884-1.77 4.3-.8926585.964614-1.3796757 2.235872-1.36 3.55-.0147373 1.3210638.4752712 2.597947 1.37 3.57 1.1608212 1.3156602 1.7916079 3.0155768 1.77 4.77z" fill="#603e26"/></g></g></svg>