<svg height="512" viewBox="0 0 48 58" width="512" xmlns="http://www.w3.org/2000/svg"><g id="Page-1" fill="none" fill-rule="evenodd"><g id="027---Bean-Weight" fill-rule="nonzero"><path id="Shape" d="m15 51v5c-.0032948 1.1032019-.8967981 1.9967052-2 2h-7c-1.10320187-.0032948-1.9967052-.8967981-2-2v-5z" fill="#285680"/><path id="Shape" d="m44 51v5c-.0032948 1.1032019-.8967981 1.9967052-2 2h-7c-1.1032019-.0032948-1.9967052-.8967981-2-2v-5z" fill="#285680"/><path id="Shape" d="m44.44 53h-40.88c-.61693032.0002942-1.19946985-.2841435-1.57863427-.770803s-.51251375-1.1210688-.36136573-1.719197l6.38-25.51 16-1 16 1 6.38 25.51c.151148.5981282.0177987 1.2325375-.3613657 1.719197s-.961704.7710972-1.5786343.770803z" fill="#3b97d3"/><path id="Shape" d="m11 50h-4.877c-.30801473-.0000081-.59883979-.1419601-.78833451-.3847868-.18949472-.2428268-.25651307-.5594308-.18166549-.8582132l.993-3.971c.14138069-.5269669.67906612-.8433433 1.20837877-.7110151s.85485799.6645122.73162123 1.1960151l-.686 2.729h3.6c.5522847 0 1 .4477153 1 1s-.4477153 1-1 1z" fill="#fff"/><circle id="Oval" cx="24" cy="39" fill="#ecf0f1" r="10"/><path id="Shape" d="m32.78 34.22c-1.4648617-.8034957-3.1092472-1.2231925-4.78-1.22-5.5228475 0-10 4.4771525-10 10-.0031925 1.6707528.4165043 3.3151383 1.22 4.78-3.7505693-2.0366847-5.7951962-6.2292172-5.0907074-10.438558.7044887-4.2093409 4.0028085-7.5076607 8.2121494-8.2121494 4.2093408-.7044888 8.4018733 1.3401381 10.438558 5.0907074z" fill="#fff"/><path id="Shape" d="m24 39c-.5522847 0-1-.4477153-1-1v-5c0-.5522847.4477153-1 1-1s1 .4477153 1 1v5c0 .5522847-.4477153 1-1 1z" fill="#ff5364"/><circle id="Oval" cx="24" cy="39" fill="#3f5c6c" r="2"/><path id="Shape" d="m24 50c-6.0751322 0-11-4.9248678-11-11s4.9248678-11 11-11 11 4.9248678 11 11c-.0071635 6.0721626-4.9278374 10.9928365-11 11zm0-20c-4.9705627 0-9 4.0294373-9 9s4.0294373 9 9 9 9-4.0294373 9-9c-.0055111-4.9682782-4.0317218-8.9944889-9-9z" fill="#2980ba"/><path id="Shape" d="m5 14.5v6.5h-5v-6.5c0-1.3807119 1.11928813-2.5 2.5-2.5s2.5 1.1192881 2.5 2.5z" fill="#bdc3c7"/><path id="Shape" d="m48 14.5v6.5h-5v-6.5c0-1.3807119 1.1192881-2.5 2.5-2.5s2.5 1.1192881 2.5 2.5z" fill="#bdc3c7"/><path id="Shape" d="m48 20v2c0 1.6568542-1.3431458 3-3 3h-42c-1.65685425 0-3-1.3431458-3-3v-2z" fill="#84b5cb"/><path id="Shape" d="m32.89 16.89c-.1732521.2826166-.3742458.5472584-.6.79-.09.11-.19.22-.29.32-3.32 3.31-9.58 2.42-13.99-2.01-3.65-3.63-4.89-8.51-3.38-11.97.1379559-.31445862.2983705-.61857796.48-.91 2.62 2.5 4.6.6 7.22 3.22 2.67 2.67.67 4.67 3.34 7.34 2.62 2.62 4.6.72 7.22 3.22z" fill="#a56a43"/><path id="Shape" d="m33.37 15.98c-.1379559.3144586-.2983705.618578-.48.91-2.62-2.5-4.6-.6-7.22-3.22-2.67-2.67-.67-4.67-3.34-7.34-2.62-2.62-4.6-.72-7.22-3.22.1732521-.28261661.3742458-.5472584.6-.79.09-.11.19-.22.29-.32 3.32-3.31 9.58-2.42 13.99 2.01 3.65 3.63 4.89 8.51 3.38 11.97z" fill="#805333"/><path id="Shape" d="m33.37 15.98c-.1379559.3144586-.2983705.618578-.48.91-.1732521.2826166-.3742458.5472584-.6.79-.0323441-.0201524-.0625061-.0436117-.09-.07-.8129446-.7819273-1.8831253-1.2405762-3.01-1.29-3.3038449-.2504115-5.9295885-2.8761551-6.18-6.18-.0486698-1.17334529-.546288-2.28314137-1.39-3.1-.8126234-.84251496-1.9202332-1.33717567-3.09-1.38-1.4453918-.10117306-2.8166747-.67781507-3.9-1.64.1379559-.31445862.2983705-.61857796.48-.91.1732521-.28261661.3742458-.5472584.6-.79.0323441.02015236.0625061.04361171.09.07.8129446.78192731 1.8831253 1.24057617 3.01 1.29 3.3038449.25041145 5.9295885 2.87615512 6.18 6.18.0486698 1.1733453.546288 2.2831414 1.39 3.1.8126234.842515 1.9202332 1.3371757 3.09 1.38 1.4453918.1011731 2.8166747.6778151 3.9 1.64z" fill="#603e26"/></g></g></svg>